<?xml version="1.0" encoding="UTF-8"?>
<svg id="bottomsnow" xmlns="http://www.w3.org/2000/svg" viewBox="0 0 5426 6716">
  <defs>
    <style>
      .cls-1 {
        fill: #fff;
      }
    </style>
  </defs>
  <path class="cls-1" d="M2709.3,4778.29c-127.14-1.12-247.76-1.46-368.35-3.47-86.6-1.45-173.19-4.52-259.74-8-76.55-3.08-153.09-6.96-229.55-11.89-79.1-5.1-158.14-11.4-237.12-18.12-57.73-4.91-115.32-11.43-173-17.02-8.23-.8-15.38-3.36-22.19-8.01-57.29-39.08-112.87-80.43-166.39-124.53-10.85-8.94-20.54-19.05-28.1-30.99-15-23.67-18.01-48.65-5.83-74.19,5.4-11.31,12.34-22.1,19.93-32.11,13.79-18.17,31.27-32.71,49.33-46.48,33.51-25.54,69.81-46.58,107.15-65.84,71.14-36.69,144.98-67.18,220-94.9,101.22-37.4,203.38-71.99,307.54-100.33,93.62-25.47,189.1-38.91,286.1-40.94,53.36-1.12,106.54,2.29,159.55,8.52,98.16,11.52,193.85,35,289.28,59.77,65.73,17.06,131.39,34.42,197.95,48.1,86.41,17.76,173.51,28.57,261.89,26.01,25.95-.75,51.89-2.72,77.79-4.69,68.41-5.22,136.76-11.27,205.2-16.05,106.39-7.43,212.97-10.34,319.6-10.07,72.64.18,145.26,2.42,217.71,7.78,75.76,5.61,151.22,13.85,225.44,30.98,31.19,7.2,61.89,15.95,91.49,28.28,17.88,7.44,35.08,16.18,50.84,27.55,11.42,8.25,21.82,17.56,29.77,29.3,12.98,19.15,17.56,39.87,12.05,62.74-3.48,14.45-9.41,27.71-17.09,40.28-12.24,20.04-26.9,38.28-44.23,53.97-34.08,30.84-68.4,61.47-103.53,91.11-46.37,39.12-95.09,75.25-144.65,110.24-8.4,5.93-17.16,9.72-27.32,11.06-43.58,5.74-87.09,12.01-130.7,17.51-41.63,5.26-83.31,10.13-125.03,14.59-33.11,3.54-66.29,6.63-99.5,9.17-52.47,4.02-104.99,7.59-157.5,11.01-28.59,1.86-57.21,3.36-85.84,4.42-76.57,2.84-153.14,6.33-229.74,7.81-159.89,3.1-319.8,5.08-473.2,7.42Z"/>
</svg>